<svg width="24" height="24" viewBox="0 0 24 24" fill="none" xmlns="http://www.w3.org/2000/svg">
<path d="M18.0502 7.16395C18.3832 5.46875 18.197 4.18219 17.4097 3.67093C17.1312 3.49822 16.8055 3.41723 16.4786 3.43937C14.5664 3.51196 11.4812 6.14473 8.96042 10.0264C5.97286 14.6268 4.91115 19.2374 6.59068 20.3281C7.38794 20.8458 8.65834 20.4788 10.0936 19.4561" stroke="#F7F7F7" stroke-width="1.5" stroke-linecap="round" stroke-linejoin="round"/>
<path d="M12.1921 8.3808C17.67 8.66792 22.0222 10.5194 21.9174 12.5192C21.8722 13.384 21.0002 14.1369 19.5822 14.687" stroke="#F7F7F7" stroke-width="1.5" stroke-linecap="round" stroke-linejoin="round"/>
<path d="M10.1504 8.35217C10.3263 8.348 10.5007 8.34201 10.6796 8.34141C11.1736 8.33973 11.6786 8.35392 12.1921 8.38082" stroke="#F7F7F7" stroke-width="1.5" stroke-linecap="round" stroke-linejoin="round"/>
<path d="M6.86338 8.66443C4.05589 9.16102 2.15007 10.1921 2.08266 11.4797C2.0374 12.3427 2.82371 13.1796 4.17153 13.8741" stroke="#F7F7F7" stroke-width="1.5" stroke-linecap="round" stroke-linejoin="round"/>
<path d="M18.0502 7.16395C18.3832 5.46875 18.197 4.18219 17.4097 3.67093C17.1312 3.49822 16.8055 3.41723 16.4786 3.43937C14.5664 3.51196 11.4812 6.14473 8.96042 10.0264C5.97286 14.6268 4.91115 19.2374 6.59068 20.3281C7.38794 20.8458 8.65834 20.4788 10.0936 19.4561" stroke="#F7F7F7" stroke-width="1.5" stroke-linecap="round" stroke-linejoin="round"/>
<path d="M10.6452 4.18332C9.9483 3.48366 9.01955 3.06309 8.03401 3.00092C7.84528 3.01333 7.66098 3.0636 7.49208 3.14872C5.70774 4.05788 6.27776 8.75996 8.76809 13.6475C11.2584 18.535 14.7236 21.7595 16.5079 20.8503C18.2239 19.976 17.7608 15.5945 15.5078 10.9132" stroke="#F7F7F7" stroke-width="1.5" stroke-linecap="round" stroke-linejoin="round"/>
<path d="M10.6452 4.18332C9.9483 3.48366 9.01955 3.06309 8.03401 3.00092C7.84528 3.01333 7.66098 3.0636 7.49208 3.14872C5.70774 4.05788 6.27776 8.75996 8.76809 13.6475C11.2584 18.535 14.7236 21.7595 16.5079 20.8503C18.2239 19.976 17.7608 15.5945 15.5078 10.9132" stroke="#F7F7F7" stroke-width="1.5" stroke-linecap="round" stroke-linejoin="round"/>
<path d="M12.3145 12.1403C12.3144 12.2783 12.2024 12.3901 12.0643 12.3901C11.9263 12.39 11.8144 12.2781 11.8143 12.1401C11.8143 12.002 11.9261 11.89 12.0641 11.8899C12.1305 11.8898 12.1943 11.9161 12.2413 11.9631C12.2882 12.0101 12.3146 12.0738 12.3145 12.1403" stroke="#F7F7F7" stroke-width="1.5" stroke-linecap="round" stroke-linejoin="round"/>
</svg>
