<svg width="41" height="41" viewBox="0 0 41 41" fill="none" xmlns="http://www.w3.org/2000/svg">
<path d="M20.8927 23.4779C19.5119 23.4779 18.3927 22.3585 18.3927 20.9779C18.3927 19.597 19.5119 18.4779 20.8927 18.4779C22.2734 18.4779 23.3927 19.597 23.3927 20.9779C23.3927 22.3585 22.2734 23.4779 20.8927 23.4779ZM20.0132 28.4685C20.3042 28.8194 20.5976 29.1577 20.8927 29.4827C21.1877 29.1577 21.4812 28.8194 21.7721 28.4685C21.4807 28.4747 21.1876 28.4779 20.8927 28.4779C20.5977 28.4779 20.3046 28.4747 20.0132 28.4685ZM16.6883 28.26C15.3514 28.1187 14.075 27.9115 12.8789 27.647C12.7549 28.2297 12.66 28.795 12.5951 29.3387C12.2804 31.9777 12.7211 33.5805 13.3927 33.9682C14.0642 34.3559 15.6726 33.9362 17.8007 32.3442C18.2391 32.0162 18.6812 31.6514 19.1239 31.2525C18.2967 30.349 17.4792 29.3472 16.6883 28.26ZM28.9065 27.647C27.7104 27.9115 26.4339 28.1187 25.097 28.26C24.3062 29.3472 23.4885 30.349 22.6614 31.2525C23.1042 31.6514 23.5462 32.0162 23.9847 32.3442C26.1127 33.9362 27.7212 34.3559 28.3927 33.9682C29.0642 33.5805 29.5051 31.9777 29.1902 29.3387C29.1254 28.795 29.0304 28.2297 28.9065 27.647ZM31.3241 27.0004C32.2851 31.3987 31.779 34.8999 29.6427 36.1332C27.5062 37.3667 24.2212 36.0544 20.8927 33.0229C17.5641 36.0544 14.2791 37.3667 12.1427 36.1332C10.0063 34.8999 9.5003 31.3987 10.4613 27.0004C6.17175 25.6335 3.39268 23.4447 3.39268 20.9779C3.39268 18.5109 6.17175 16.3222 10.4613 14.9553C9.5003 10.5569 10.0063 7.05583 12.1427 5.82238C14.2791 4.58893 17.5641 5.90129 20.8927 8.93274C24.2212 5.90129 27.5062 4.58893 29.6427 5.82238C31.779 7.05583 32.2851 10.5569 31.3241 14.9553C35.6136 16.3222 38.3927 18.5109 38.3927 20.9779C38.3927 23.4447 35.6136 25.6335 31.3241 27.0004ZM19.1239 10.7031C18.6812 10.3043 18.2391 9.93943 17.8007 9.61144C15.6726 8.01936 14.0642 7.59973 13.3927 7.98744C12.7211 8.37516 12.2804 9.97788 12.5951 12.6169C12.66 13.1605 12.7549 13.7259 12.8789 14.3087C14.075 14.0441 15.3514 13.837 16.6883 13.6957C17.4792 12.6085 18.2967 11.6067 19.1239 10.7031ZM25.097 13.6957C26.4339 13.837 27.7104 14.0441 28.9065 14.3087C29.0304 13.7259 29.1254 13.1605 29.1902 12.6169C29.5051 9.97788 29.0642 8.37516 28.3927 7.98744C27.7212 7.59973 26.1127 8.01936 23.9847 9.61144C23.5462 9.93943 23.1042 10.3043 22.6614 10.7031C23.4885 11.6067 24.3062 12.6085 25.097 13.6957ZM21.7721 13.4871C21.4812 13.1363 21.1877 12.7979 20.8927 12.4729C20.5976 12.7979 20.3042 13.1363 20.0132 13.4871C20.3046 13.4809 20.5977 13.4778 20.8927 13.4778C21.1876 13.4778 21.4807 13.4809 21.7721 13.4871ZM14.8453 25.4847C14.6942 25.2355 14.5449 24.9832 14.3975 24.7279C14.25 24.4724 14.1062 24.2169 13.9659 23.9615C13.8075 24.3889 13.6611 24.8122 13.5272 25.2302C13.9562 25.3234 14.396 25.4082 14.8453 25.4847ZM18.0659 25.8739C18.9876 25.9424 19.9329 25.9779 20.8927 25.9779C21.8526 25.9779 22.7977 25.9424 23.7194 25.8739C24.2395 25.1099 24.7429 24.309 25.2229 23.4779C25.7027 22.6465 26.1447 21.8102 26.546 20.9779C26.1447 20.1454 25.7027 19.309 25.2229 18.4779C24.7429 17.6465 24.2395 16.8457 23.7194 16.0818C22.7977 16.0133 21.8526 15.9778 20.8927 15.9778C19.9329 15.9778 18.9876 16.0133 18.0659 16.0818C17.5458 16.8457 17.0425 17.6465 16.5626 18.4779C16.0826 19.309 15.6407 20.1454 15.2393 20.9779C15.6407 21.8102 16.0826 22.6465 16.5626 23.4779C17.0425 24.309 17.5458 25.1099 18.0659 25.8739ZM27.8196 17.994C27.9779 17.5667 28.1242 17.1434 28.2582 16.7254C27.8292 16.6323 27.3894 16.5474 26.9401 16.4709C27.0911 16.7201 27.2404 16.9724 27.3879 17.2278C27.5354 17.4832 27.6792 17.7387 27.8196 17.994ZM11.1101 17.3722C10.5434 17.5563 10.0063 17.7567 9.5031 17.9724C7.06029 19.0194 5.89268 20.2024 5.89268 20.9779C5.89268 21.7532 7.06029 22.9364 9.5031 23.9832C10.0063 24.1989 10.5434 24.3994 11.1101 24.5834C11.4791 23.4152 11.9379 22.2062 12.484 20.9779C11.9379 19.7494 11.4791 18.5404 11.1101 17.3722ZM13.5272 16.7254C13.6611 17.1434 13.8075 17.5667 13.9659 17.994C14.1062 17.7387 14.25 17.4832 14.3975 17.2278C14.5449 16.9724 14.6942 16.7201 14.8453 16.4709C14.396 16.5474 13.9562 16.6323 13.5272 16.7254ZM30.6752 24.5834C31.2419 24.3994 31.779 24.1989 32.2822 23.9832C34.725 22.9364 35.8927 21.7532 35.8927 20.9779C35.8927 20.2024 34.725 19.0194 32.2822 17.9724C31.779 17.7567 31.2419 17.5563 30.6752 17.3722C30.3062 18.5404 29.8475 19.7494 29.3014 20.9779C29.8475 22.2062 30.3062 23.4152 30.6752 24.5834ZM28.2582 25.2302C28.1242 24.8122 27.9779 24.3889 27.8196 23.9615C27.6792 24.2169 27.5354 24.4724 27.3879 24.7279C27.2404 24.9832 27.0911 25.2355 26.9401 25.4847C27.3894 25.4082 27.8292 25.3234 28.2582 25.2302Z" fill="black"/>
</svg>
