<svg width="16" height="11" viewBox="0 0 16 11" fill="none" xmlns="http://www.w3.org/2000/svg">
<path d="M0 0.252441H16V10.7474H0V0.252441Z" fill="#6DA544"/>
<path d="M1.77148 5.53791L7.96498 1.44141L14.2395 5.46941L8.04648 9.54891L1.77148 5.53791Z" fill="#FFDA44"/>
<path d="M8.00562 7.98588C9.38633 7.98588 10.5056 6.87085 10.5056 5.49538C10.5056 4.11992 9.38633 3.00488 8.00562 3.00488C6.6249 3.00488 5.50562 4.11992 5.50562 5.49538C5.50562 6.87085 6.6249 7.98588 8.00562 7.98588Z" fill="#F0F0F0"/>
<path d="M6.75562 5.33948C6.33184 5.33904 5.91042 5.40259 5.50562 5.52798C5.51395 6.05606 5.68932 6.56793 6.00656 6.99018C6.3238 7.41243 6.76661 7.72337 7.27149 7.87839C7.77637 8.03342 8.31738 8.02456 8.81692 7.8531C9.31646 7.68164 9.74886 7.35638 10.0521 6.92398C9.65675 6.42944 9.15515 6.03023 8.5845 5.75594C8.01384 5.48164 7.38877 5.33931 6.75562 5.33948Z" fill="#0052B4"/>
<path d="M10.4597 5.9725C10.5743 5.36811 10.462 4.74269 10.1444 4.21589C9.82672 3.68909 9.32598 3.29791 8.73798 3.11717C8.14997 2.93644 7.51596 2.97884 6.95726 3.23627C6.39856 3.49371 5.95439 3.94809 5.70972 4.5125C6.56036 4.33673 7.4416 4.37837 8.27188 4.63358C9.10216 4.88878 9.85465 5.34929 10.4597 5.9725Z" fill="#0052B4"/>
</svg>
