<svg width="16" height="16" viewBox="0 0 16 16" fill="none" xmlns="http://www.w3.org/2000/svg">
<path d="M4.66668 3.33329V1.33329C4.66668 0.965106 4.96516 0.666626 5.33334 0.666626H10.6667C11.0349 0.666626 11.3333 0.965106 11.3333 1.33329V3.33329H14C14.3682 3.33329 14.6667 3.63177 14.6667 3.99996V13.3333C14.6667 13.7015 14.3682 14 14 14H2.00001C1.63182 14 1.33334 13.7015 1.33334 13.3333V3.99996C1.33334 3.63177 1.63182 3.33329 2.00001 3.33329H4.66668ZM6.00001 8.66663H2.66668V12.6666H13.3333V8.66663H10V10.6666H6.00001V8.66663ZM13.3333 4.66663H2.66668V7.33329H6.00001V5.99996H10V7.33329H13.3333V4.66663ZM7.33334 7.33329V9.33329H8.66668V7.33329H7.33334ZM6.00001 1.99996V3.33329H10V1.99996H6.00001Z" fill="white"/>
</svg>
