<svg width="25" height="25" viewBox="0 0 25 25" fill="none" xmlns="http://www.w3.org/2000/svg">
<path d="M12.5243 22.8775C7.00147 22.8775 2.52432 18.4003 2.52432 12.8775C2.52432 7.35462 7.00147 2.87747 12.5243 2.87747C18.0471 2.87747 22.5243 7.35462 22.5243 12.8775C22.5243 18.4003 18.0471 22.8775 12.5243 22.8775ZM10.2343 20.5449C9.27175 18.5034 8.68164 16.2517 8.55163 13.8775H4.58621C4.98232 17.054 7.24071 19.6522 10.2343 20.5449ZM10.555 13.8775C10.7054 16.3163 11.4021 18.6072 12.5243 20.6295C13.6465 18.6072 14.3432 16.3163 14.4936 13.8775H10.555ZM20.4624 13.8775H16.497C16.367 16.2517 15.7769 18.5034 14.8143 20.5449C17.8079 19.6522 20.0663 17.054 20.4624 13.8775ZM4.58621 11.8775H8.55163C8.68164 9.50324 9.27175 7.25154 10.2343 5.21003C7.24071 6.1028 4.98232 8.70097 4.58621 11.8775ZM10.555 11.8775H14.4936C14.3432 9.43869 13.6465 7.14772 12.5243 5.12546C11.4021 7.14772 10.7054 9.43869 10.555 11.8775ZM14.8143 5.21003C15.7769 7.25154 16.367 9.50324 16.497 11.8775H20.4624C20.0663 8.70097 17.8079 6.1028 14.8143 5.21003Z" fill="white"/>
</svg>
