<svg width="40" height="40" viewBox="0 0 40 40" fill="none" xmlns="http://www.w3.org/2000/svg">
<path d="M22.224 26.7583L20.794 28.7383C22.1507 29.9483 23.8373 30.5533 25.854 30.5533C27.394 30.5167 28.5673 30.1195 29.374 29.3617C30.1928 28.5917 30.6023 27.675 30.6023 26.6117C30.6023 25.5728 30.3152 24.7172 29.7407 24.045C29.1662 23.3728 28.2007 22.835 26.844 22.4317C25.7195 22.0895 24.9252 21.7778 24.4607 21.4967C23.9962 21.2033 23.764 20.8488 23.764 20.4333C23.764 20.0545 23.9535 19.7488 24.3323 19.5167C24.7112 19.2845 25.2185 19.1683 25.854 19.1683C26.3185 19.1683 26.844 19.26 27.4307 19.4433C28.0173 19.6022 28.5368 19.8588 28.989 20.2133L30.2723 18.215C29.1478 17.3105 27.6568 16.8583 25.799 16.8583C24.4668 16.8583 23.3728 17.2005 22.5173 17.885C21.6373 18.5695 21.1973 19.4188 21.1973 20.4333C21.2095 21.5088 21.564 22.3462 22.2607 22.945C22.9695 23.5438 23.9778 24.0328 25.2857 24.4117C26.3735 24.7538 27.1128 25.0962 27.504 25.4383C27.8828 25.7805 28.0723 26.1962 28.0723 26.685C28.0723 27.1617 27.8828 27.5283 27.504 27.785C27.1128 28.0538 26.5507 28.1883 25.8173 28.1883C24.6195 28.2005 23.4218 27.7238 22.224 26.7583ZM13.0067 27.8217C12.6401 27.6017 12.2979 27.2778 11.9801 26.85L10.2567 28.2617C10.7701 29.1295 11.4056 29.7345 12.1634 30.0767C12.8723 30.3945 13.6851 30.5533 14.6018 30.5533C15.1029 30.5533 15.6223 30.4738 16.1601 30.315C16.6978 30.1562 17.1928 29.8872 17.6452 29.5083C18.4395 28.8728 18.8552 27.8338 18.8918 26.3917V17.0783H16.4167V25.915C16.4167 26.7583 16.2273 27.3512 15.8484 27.6933C15.4695 28.0233 14.9929 28.1883 14.4184 28.1883C13.8684 28.1883 13.3979 28.0662 13.0067 27.8217ZM5 10C5 7.23858 7.23858 5 10 5H30C32.7615 5 35 7.23858 35 10V30C35 32.7615 32.7615 35 30 35H10C7.23858 35 5 32.7615 5 30V10ZM10 8.33333C9.07953 8.33333 8.33333 9.07953 8.33333 10V30C8.33333 30.9205 9.07953 31.6667 10 31.6667H30C30.9205 31.6667 31.6667 30.9205 31.6667 30V10C31.6667 9.07953 30.9205 8.33333 30 8.33333H10Z" fill="black"/>
</svg>
