<svg width="40" height="40" viewBox="0 0 40 40" fill="none" xmlns="http://www.w3.org/2000/svg">
<path d="M11.7506 23.5357L8.215 27.0712L12.9291 31.7852L31.7852 12.9291L27.0712 8.21501L23.5357 11.7506L25.8927 14.1076L23.5357 16.4646L21.1787 14.1076L18.8217 16.4646L21.1787 18.8217L18.8217 21.1787L16.4646 18.8217L14.1076 21.1787L16.4646 23.5357L14.1076 25.8927L11.7506 23.5357ZM28.2497 4.67948L35.3208 11.7506C35.9717 12.4014 35.9717 13.4567 35.3208 14.1076L14.1076 35.3208C13.4567 35.9717 12.4014 35.9717 11.7506 35.3208L4.67947 28.2497C4.0286 27.5988 4.0286 26.5435 4.67947 25.8927L25.8927 4.67948C26.5435 4.02861 27.5988 4.02861 28.2497 4.67948ZM23.5357 30.6058L25.8927 28.2488L29.6302 31.9863H31.9872V29.6293L28.2497 25.8918L30.6067 23.5348L34.9995 27.9277V34.9998H27.9297L23.5357 30.6058ZM9.39329 16.4635L4.67924 11.7495C4.02837 11.0986 4.02837 10.0434 4.67924 9.39248L9.39329 4.67843C10.0442 4.02756 11.0994 4.02756 11.7503 4.67843L16.4644 9.39248L14.1073 11.7495L10.5718 8.21396L8.21477 10.571L11.7503 14.1065L9.39329 16.4635Z" fill="black"/>
</svg>
