<svg width="24" height="24" viewBox="0 0 24 24" fill="none" xmlns="http://www.w3.org/2000/svg">
<path d="M6.99793 20.0033C5.61665 20.0033 4.49689 18.8836 4.49689 17.5023V14.501C4.49689 13.8377 4.23339 13.2016 3.76435 12.7325C3.29532 12.2635 2.65917 12 1.99585 12C2.65917 12 3.29532 11.7365 3.76435 11.2674C4.23339 10.7984 4.49689 10.1623 4.49689 9.49893V6.49768C4.49689 5.1164 5.61665 3.99664 6.99793 3.99664" stroke="#F7F7F7" stroke-width="1.5" stroke-linecap="round" stroke-linejoin="round"/>
<path d="M17.0022 3.99664C18.3835 3.99664 19.5032 5.1164 19.5032 6.49768V9.49893C19.5032 10.8802 20.623 12 22.0043 12C20.623 12 19.5032 13.1197 19.5032 14.501V17.5023C19.5032 18.8836 18.3835 20.0033 17.0022 20.0033" stroke="#F7F7F7" stroke-width="1.5" stroke-linecap="round" stroke-linejoin="round"/>
<path d="M8.67376 12.0821C8.67376 12.0544 8.65137 12.032 8.62374 12.032C8.59612 12.032 8.57372 12.0544 8.57372 12.0821C8.57372 12.1097 8.59612 12.1321 8.62374 12.1321C8.65137 12.1321 8.67376 12.1097 8.67376 12.0821" stroke="#F7F7F7" stroke-width="1.5" stroke-linecap="round" stroke-linejoin="round"/>
<path d="M12.0502 12.073C12.0502 12.0454 12.0278 12.023 12.0002 12.023C11.9726 12.023 11.9502 12.0454 11.9502 12.073C11.9502 12.1006 11.9726 12.123 12.0002 12.123C12.0278 12.123 12.0502 12.1006 12.0502 12.073" stroke="#F7F7F7" stroke-width="1.5" stroke-linecap="round" stroke-linejoin="round"/>
<path d="M15.0514 12.073C15.0514 12.0454 15.0291 12.023 15.0014 12.023C14.9738 12.023 14.9514 12.0454 14.9514 12.073C14.9514 12.1006 14.9738 12.123 15.0014 12.123C15.0291 12.123 15.0514 12.1006 15.0514 12.073" stroke="#F7F7F7" stroke-width="1.5" stroke-linecap="round" stroke-linejoin="round"/>
</svg>
