<svg width="40" height="40" viewBox="0 0 40 40" fill="none" xmlns="http://www.w3.org/2000/svg">
<path d="M6.66668 30V23.8333C6.66668 22.4527 5.54739 21.3333 4.16668 21.3333H3.33334V18.6667H4.16668C5.54739 18.6667 6.66668 17.5473 6.66668 16.1667V10C6.66668 7.23858 8.90526 5 11.6667 5H13.3333V8.33333H11.6667C10.7462 8.33333 10 9.07953 10 10V16.8333C10 18.3097 9.04014 19.562 7.71039 20C9.04014 20.438 10 21.6903 10 23.1667V30C10 30.9205 10.7462 31.6667 11.6667 31.6667H13.3333V35H11.6667C8.90526 35 6.66668 32.7615 6.66668 30ZM33.3333 23.8333V30C33.3333 32.7615 31.0948 35 28.3333 35H26.6667V31.6667H28.3333C29.2538 31.6667 30 30.9205 30 30V23.1667C30 21.6903 30.9598 20.438 32.2897 20C30.9598 19.562 30 18.3097 30 16.8333V10C30 9.07953 29.2538 8.33333 28.3333 8.33333H26.6667V5H28.3333C31.0948 5 33.3333 7.23858 33.3333 10V16.1667C33.3333 17.5473 34.4527 18.6667 35.8333 18.6667H36.6667V21.3333H35.8333C34.4527 21.3333 33.3333 22.4527 33.3333 23.8333Z" fill="black"/>
</svg>
