<svg width="25" height="24" viewBox="0 0 25 24" fill="none" xmlns="http://www.w3.org/2000/svg">
<path d="M5.00697 14.257C4.50631 14.8935 4.37924 15.7472 4.67283 16.5019C5.47316 17.8835 8.79955 17.5023 12.4991 15.7466" stroke="#F7F7F7" stroke-width="1.5" stroke-linecap="round" stroke-linejoin="round"/>
<path d="M19.9933 9.74309C20.4934 9.10633 20.6204 8.25296 20.3275 7.49816C19.5271 6.11658 16.2008 6.49774 12.5012 8.25347" stroke="#F7F7F7" stroke-width="1.5" stroke-linecap="round" stroke-linejoin="round"/>
<path d="M15.7564 13.8728C15.4383 17.9465 14.1007 21.0038 12.5001 21.0038C11.8428 21.0038 11.2315 20.4816 10.7153 19.5922" stroke="#F7F7F7" stroke-width="1.5" stroke-linecap="round" stroke-linejoin="round"/>
<path d="M6.79176 6.66373C5.98793 6.5502 5.18349 6.86696 4.67288 7.49808C3.87255 8.87966 5.86238 11.5618 9.24378 13.8727" stroke="#F7F7F7" stroke-width="1.5" stroke-linecap="round" stroke-linejoin="round"/>
<path d="M18.2086 17.3362C19.0124 17.4497 19.8169 17.133 20.3275 16.5019C21.1278 15.1203 19.138 12.4382 15.7566 10.1272" stroke="#F7F7F7" stroke-width="1.5" stroke-linecap="round" stroke-linejoin="round"/>
<path d="M9.24365 10.1272C9.56178 6.05349 10.8993 2.99622 12.5 2.99622C13.1573 2.99622 13.7685 3.51843 14.2848 4.4078" stroke="#F7F7F7" stroke-width="1.5" stroke-linecap="round" stroke-linejoin="round"/>
</svg>
