<svg width="141" height="71" viewBox="0 0 141 71" fill="none" xmlns="http://www.w3.org/2000/svg">
<path fill-rule="evenodd" clip-rule="evenodd" d="M108.464 18.5784C101.969 13.4468 93.92 10.0956 85.6734 10.1468C83.0935 10.1629 79.7566 10.8891 76.4339 12.0078C73.1239 13.1223 69.9451 14.5864 67.6938 15.9971C67.507 16.1142 67.3206 16.2343 67.1348 16.3572C70.7901 19.707 73.6554 23.8897 75.4078 29.2594C76.2835 31.9429 76.2191 35.2203 75.2061 38.0084C74.189 40.8077 72.123 43.321 68.8565 44.0231C63.6495 45.1425 59.262 41.715 56.8782 37.9518C53.8588 33.1851 54.3208 28.2193 56.4674 23.9402C57.9259 21.0327 60.171 18.4067 62.6842 16.2645C59.2467 13.7297 55.1873 11.7431 50.6732 10.0578C36.4096 4.73272 17.4326 3.40811 2.13002 3.4094C1.36881 3.40946 0.751671 2.79244 0.751607 2.03122C0.751542 1.27001 1.36857 0.652877 2.12978 0.652813C17.4953 0.651514 36.8878 1.96885 51.6373 7.47536C56.5638 9.31457 61.0983 11.5524 64.9425 14.516C65.3693 14.2164 65.7993 13.9313 66.2301 13.6613C68.7035 12.1113 72.0881 10.5624 75.5543 9.39536C79.0079 8.23259 82.6601 7.40891 85.6562 7.39029C94.6541 7.33438 103.295 10.9811 110.173 16.4156C117.695 22.359 126.077 33.0777 129.672 42.1204C131.236 46.0562 132.132 50.4462 131.84 54.6367C132.666 54.5848 133.49 54.5391 134.313 54.4936C136.01 54.3995 137.698 54.306 139.379 54.159C140.137 54.0927 140.806 54.6537 140.872 55.412C140.938 56.1703 140.377 56.8388 139.619 56.9051C137.749 57.0686 135.951 57.1683 134.194 57.2656C133.272 57.3167 132.36 57.3672 131.456 57.426C130.558 61.7055 128.214 65.5912 123.876 68.2239C120.423 70.3192 116.716 70.9316 112.828 69.438C111.614 68.9717 110.245 68.2006 109.444 66.9907C109.025 66.358 108.762 65.6032 108.78 64.7506C108.798 63.9073 109.088 63.0711 109.603 62.2579C110.808 60.3554 112.836 59.0905 114.788 58.2107C116.748 57.3272 118.828 56.7486 120.334 56.33L120.366 56.3208C123.298 55.5055 126.193 55.0964 129.058 54.843C129.402 51.0507 128.615 46.9257 127.11 43.1387C123.712 34.5909 115.646 24.2535 108.464 18.5784ZM128.571 57.6543C126.095 57.8947 123.638 58.2722 121.105 58.9766C119.573 59.4026 117.675 59.933 115.92 60.7239C114.143 61.5249 112.706 62.5106 111.932 63.733C111.622 64.2218 111.541 64.5744 111.536 64.8087C111.531 65.0335 111.594 65.245 111.742 65.4691C112.076 65.9728 112.809 66.4777 113.816 66.8647C116.785 68.005 119.6 67.5937 122.446 65.8672C125.782 63.8429 127.702 60.9559 128.571 57.6543ZM64.8711 18.0288C62.4287 20.0323 60.2721 22.5035 58.9313 25.1763C57.1156 28.7958 56.8173 32.7043 59.2069 36.4767C61.3032 39.7861 64.7027 42.0965 68.2772 41.3281C70.3329 40.8862 71.8091 39.2858 72.6152 37.0671C73.4254 34.8372 73.4653 32.1924 72.7872 30.1146C71.1454 25.0838 68.4269 21.1732 64.8711 18.0288Z" fill="#F7F7F7"/>
</svg>
