<svg width="16" height="11" viewBox="0 0 16 11" fill="none" xmlns="http://www.w3.org/2000/svg">
<mask id="mask0_1_588" style="mask-type:luminance" maskUnits="userSpaceOnUse" x="0" y="0" width="16" height="11">
<path d="M0.233887 0.970093H15.766V10.0299H0.233887V0.970093Z" fill="white"/>
</mask>
<g mask="url(#mask0_1_588)">
<path d="M0.233887 9.33313H15.766V10.0299H0.233887V9.33313Z" fill="#F32837"/>
</g>
<mask id="mask1_1_588" style="mask-type:luminance" maskUnits="userSpaceOnUse" x="0" y="0" width="16" height="11">
<path d="M0.233887 0.970093H15.766V10.0299H0.233887V0.970093Z" fill="white"/>
</mask>
<g mask="url(#mask1_1_588)">
<path d="M0.233887 8.63623H15.766V9.3331H0.233887V8.63623Z" fill="#FFF5F5"/>
</g>
<mask id="mask2_1_588" style="mask-type:luminance" maskUnits="userSpaceOnUse" x="0" y="0" width="16" height="11">
<path d="M0.233887 0.970093H15.766V10.0299H0.233887V0.970093Z" fill="white"/>
</mask>
<g mask="url(#mask2_1_588)">
<path d="M0.233887 7.93982H15.766V8.63622H0.233887V7.93982Z" fill="#F32837"/>
</g>
<mask id="mask3_1_588" style="mask-type:luminance" maskUnits="userSpaceOnUse" x="0" y="0" width="16" height="11">
<path d="M0.233887 0.970093H15.766V10.0299H0.233887V0.970093Z" fill="white"/>
</mask>
<g mask="url(#mask3_1_588)">
<path d="M0.233887 7.24304H15.766V7.93985H0.233887V7.24304Z" fill="#FFF5F5"/>
</g>
<mask id="mask4_1_588" style="mask-type:luminance" maskUnits="userSpaceOnUse" x="0" y="0" width="16" height="11">
<path d="M0.233887 0.970093H15.766V10.0299H0.233887V0.970093Z" fill="white"/>
</mask>
<g mask="url(#mask4_1_588)">
<path d="M0.233887 6.54565H15.766V7.24297H0.233887V6.54565Z" fill="#F32837"/>
</g>
<mask id="mask5_1_588" style="mask-type:luminance" maskUnits="userSpaceOnUse" x="0" y="0" width="16" height="11">
<path d="M0.233887 0.970093H15.766V10.0299H0.233887V0.970093Z" fill="white"/>
</mask>
<g mask="url(#mask5_1_588)">
<path d="M0.233887 5.84937H15.766V6.54572H0.233887V5.84937Z" fill="#FFF5F5"/>
</g>
<mask id="mask6_1_588" style="mask-type:luminance" maskUnits="userSpaceOnUse" x="0" y="0" width="16" height="11">
<path d="M0.233887 0.970093H15.766V10.0299H0.233887V0.970093Z" fill="white"/>
</mask>
<g mask="url(#mask6_1_588)">
<path d="M0.233887 5.15161H15.766V5.84936H0.233887V5.15161Z" fill="#F32837"/>
</g>
<mask id="mask7_1_588" style="mask-type:luminance" maskUnits="userSpaceOnUse" x="0" y="0" width="16" height="11">
<path d="M0.233887 0.970093H15.766V10.0299H0.233887V0.970093Z" fill="white"/>
</mask>
<g mask="url(#mask7_1_588)">
<path d="M0.233887 4.4552H15.766V5.1516H0.233887V4.4552Z" fill="#FFF5F5"/>
</g>
<mask id="mask8_1_588" style="mask-type:luminance" maskUnits="userSpaceOnUse" x="0" y="0" width="16" height="11">
<path d="M0.233887 0.970093H15.766V10.0299H0.233887V0.970093Z" fill="white"/>
</mask>
<g mask="url(#mask8_1_588)">
<path d="M0.233887 3.7583H15.766V4.45517H0.233887V3.7583Z" fill="#F32837"/>
</g>
<mask id="mask9_1_588" style="mask-type:luminance" maskUnits="userSpaceOnUse" x="0" y="0" width="16" height="11">
<path d="M0.233887 0.970093H15.766V10.0299H0.233887V0.970093Z" fill="white"/>
</mask>
<g mask="url(#mask9_1_588)">
<path d="M0.233887 3.06104H15.766V3.75831H0.233887V3.06104Z" fill="#FFF5F5"/>
</g>
<mask id="mask10_1_588" style="mask-type:luminance" maskUnits="userSpaceOnUse" x="0" y="0" width="16" height="11">
<path d="M0.233887 0.970093H15.766V10.0299H0.233887V0.970093Z" fill="white"/>
</mask>
<g mask="url(#mask10_1_588)">
<path d="M0.233887 2.36426H15.766V3.06113H0.233887V2.36426Z" fill="#F32837"/>
</g>
<mask id="mask11_1_588" style="mask-type:luminance" maskUnits="userSpaceOnUse" x="0" y="0" width="16" height="11">
<path d="M0.233887 0.970093H15.766V10.0299H0.233887V0.970093Z" fill="white"/>
</mask>
<g mask="url(#mask11_1_588)">
<path d="M0.233887 1.66736H15.766V2.36416H0.233887V1.66736Z" fill="#FFF5F5"/>
</g>
<mask id="mask12_1_588" style="mask-type:luminance" maskUnits="userSpaceOnUse" x="0" y="0" width="16" height="11">
<path d="M0.233887 0.970093H15.766V10.0299H0.233887V0.970093Z" fill="white"/>
</mask>
<g mask="url(#mask12_1_588)">
<path d="M0.233887 0.970093H15.766V1.66741H0.233887V0.970093Z" fill="#F32837"/>
</g>
<mask id="mask13_1_588" style="mask-type:luminance" maskUnits="userSpaceOnUse" x="0" y="0" width="16" height="11">
<path d="M0.233887 0.970093H15.766V10.0299H0.233887V0.970093Z" fill="white"/>
</mask>
<g mask="url(#mask13_1_588)">
<path d="M0.233887 0.970093H7.32706V5.84935H0.233887V0.970093Z" fill="#2A3560"/>
</g>
<mask id="mask14_1_588" style="mask-type:luminance" maskUnits="userSpaceOnUse" x="0" y="0" width="16" height="11">
<path d="M0.233887 0.970093H15.766V10.0299H0.233887V0.970093Z" fill="white"/>
</mask>
<g mask="url(#mask14_1_588)">
<path d="M0.874662 1.50781L0.935232 1.69265H1.12954L0.972267 1.80652L1.03196 1.99093L0.874662 1.87706L0.71741 1.99093L0.77888 1.80652L0.621582 1.69265H0.814092L0.874662 1.50781Z" fill="#FFF5F5"/>
</g>
<mask id="mask15_1_588" style="mask-type:luminance" maskUnits="userSpaceOnUse" x="0" y="0" width="16" height="11">
<path d="M0.233887 0.970093H15.766V10.0299H0.233887V0.970093Z" fill="white"/>
</mask>
<g mask="url(#mask15_1_588)">
<path d="M0.874662 2.32263L0.935232 2.50655H1.12954L0.972267 2.61997L1.03196 2.80523L0.874662 2.69096L0.71741 2.80523L0.77888 2.61997L0.621582 2.50655H0.814092L0.874662 2.32263Z" fill="#FFF5F5"/>
</g>
<mask id="mask16_1_588" style="mask-type:luminance" maskUnits="userSpaceOnUse" x="0" y="0" width="16" height="11">
<path d="M0.233887 0.970093H15.766V10.0299H0.233887V0.970093Z" fill="white"/>
</mask>
<g mask="url(#mask16_1_588)">
<path d="M0.874662 3.13696L0.935232 3.3209H1.12954L0.972267 3.4348L1.03196 3.61961L0.874662 3.50527L0.71741 3.61961L0.77888 3.4348L0.621582 3.3209H0.814092L0.874662 3.13696Z" fill="#FFF5F5"/>
</g>
<mask id="mask17_1_588" style="mask-type:luminance" maskUnits="userSpaceOnUse" x="0" y="0" width="16" height="11">
<path d="M0.233887 0.970093H15.766V10.0299H0.233887V0.970093Z" fill="white"/>
</mask>
<g mask="url(#mask17_1_588)">
<path d="M0.874662 3.95093L0.935232 4.13574H1.12954L0.972267 4.24962L1.03196 4.43358L0.874662 4.32015L0.71741 4.43358L0.77888 4.24962L0.621582 4.13574H0.814092L0.874662 3.95093Z" fill="#FFF5F5"/>
</g>
<mask id="mask18_1_588" style="mask-type:luminance" maskUnits="userSpaceOnUse" x="0" y="0" width="16" height="11">
<path d="M0.233887 0.970093H15.766V10.0299H0.233887V0.970093Z" fill="white"/>
</mask>
<g mask="url(#mask18_1_588)">
<path d="M0.874662 4.76526L0.935232 4.95055H1.12954L0.972267 5.0635L1.03196 5.24791L0.874662 5.13403L0.71741 5.24791L0.77888 5.0635L0.621582 4.95055H0.814092L0.874662 4.76526Z" fill="#FFF5F5"/>
</g>
<mask id="mask19_1_588" style="mask-type:luminance" maskUnits="userSpaceOnUse" x="0" y="0" width="16" height="11">
<path d="M0.233887 0.970093H15.766V10.0299H0.233887V0.970093Z" fill="white"/>
</mask>
<g mask="url(#mask19_1_588)">
<path d="M1.44223 1.93677L1.50008 2.12158H1.69527L1.53896 2.23593L1.59769 2.41982L1.44223 2.3064L1.28588 2.41982L1.34461 2.23593L1.18823 2.12158H1.38259L1.44223 1.93677Z" fill="#FFF5F5"/>
</g>
<mask id="mask20_1_588" style="mask-type:luminance" maskUnits="userSpaceOnUse" x="0" y="0" width="16" height="11">
<path d="M0.233887 0.970093H15.766V10.0299H0.233887V0.970093Z" fill="white"/>
</mask>
<g mask="url(#mask20_1_588)">
<path d="M1.44223 2.75146L1.50008 2.9354H1.69527L1.53896 3.04975L1.59769 3.23364L1.44223 3.12069L1.28588 3.23364L1.34461 3.04975L1.18823 2.9354H1.38259L1.44223 2.75146Z" fill="#FFF5F5"/>
</g>
<mask id="mask21_1_588" style="mask-type:luminance" maskUnits="userSpaceOnUse" x="0" y="0" width="16" height="11">
<path d="M0.233887 0.970093H15.766V10.0299H0.233887V0.970093Z" fill="white"/>
</mask>
<g mask="url(#mask21_1_588)">
<path d="M1.44223 3.5658L1.50008 3.75016H1.69527L1.53896 3.86403L1.59769 4.04844L1.44223 3.93457L1.28588 4.04844L1.34461 3.86403L1.18823 3.75016H1.38259L1.44223 3.5658Z" fill="#FFF5F5"/>
</g>
<mask id="mask22_1_588" style="mask-type:luminance" maskUnits="userSpaceOnUse" x="0" y="0" width="16" height="11">
<path d="M0.233887 0.970093H15.766V10.0299H0.233887V0.970093Z" fill="white"/>
</mask>
<g mask="url(#mask22_1_588)">
<path d="M1.44223 4.38062L1.50008 4.56455H1.69527L1.53896 4.67845L1.59769 4.86238L1.44223 4.74804L1.28588 4.86238L1.34461 4.67845L1.18823 4.56455H1.38259L1.44223 4.38062Z" fill="#FFF5F5"/>
</g>
<mask id="mask23_1_588" style="mask-type:luminance" maskUnits="userSpaceOnUse" x="0" y="0" width="16" height="11">
<path d="M0.233887 0.970093H15.766V10.0299H0.233887V0.970093Z" fill="white"/>
</mask>
<g mask="url(#mask23_1_588)">
<path d="M2.01529 1.50781L2.07581 1.69265H2.27012L2.11289 1.80652L2.17342 1.99093L2.01529 1.87706L1.85981 1.99093L1.91946 1.80652L1.76221 1.69265H1.95559L2.01529 1.50781Z" fill="#FFF5F5"/>
</g>
<mask id="mask24_1_588" style="mask-type:luminance" maskUnits="userSpaceOnUse" x="0" y="0" width="16" height="11">
<path d="M0.233887 0.970093H15.766V10.0299H0.233887V0.970093Z" fill="white"/>
</mask>
<g mask="url(#mask24_1_588)">
<path d="M2.01529 2.32263L2.07581 2.50655H2.27012L2.11289 2.61997L2.17342 2.80523L2.01529 2.69096L1.85981 2.80523L1.91946 2.61997L1.76221 2.50655H1.95559L2.01529 2.32263Z" fill="#FFF5F5"/>
</g>
<mask id="mask25_1_588" style="mask-type:luminance" maskUnits="userSpaceOnUse" x="0" y="0" width="16" height="11">
<path d="M0.233887 0.970093H15.766V10.0299H0.233887V0.970093Z" fill="white"/>
</mask>
<g mask="url(#mask25_1_588)">
<path d="M2.01529 3.13696L2.07581 3.3209H2.27012L2.11289 3.4348L2.17342 3.61961L2.01529 3.50527L1.85981 3.61961L1.91946 3.4348L1.76221 3.3209H1.95559L2.01529 3.13696Z" fill="#FFF5F5"/>
</g>
<mask id="mask26_1_588" style="mask-type:luminance" maskUnits="userSpaceOnUse" x="0" y="0" width="16" height="11">
<path d="M0.233887 0.970093H15.766V10.0299H0.233887V0.970093Z" fill="white"/>
</mask>
<g mask="url(#mask26_1_588)">
<path d="M2.01529 3.95093L2.07581 4.13574H2.27012L2.11289 4.24962L2.17342 4.43358L2.01529 4.32015L1.85981 4.43358L1.91946 4.24962L1.76221 4.13574H1.95559L2.01529 3.95093Z" fill="#FFF5F5"/>
</g>
<mask id="mask27_1_588" style="mask-type:luminance" maskUnits="userSpaceOnUse" x="0" y="0" width="16" height="11">
<path d="M0.233887 0.970093H15.766V10.0299H0.233887V0.970093Z" fill="white"/>
</mask>
<g mask="url(#mask27_1_588)">
<path d="M2.01529 4.76526L2.07581 4.95055H2.27012L2.11289 5.0635L2.17342 5.24791L2.01529 5.13403L1.85981 5.24791L1.91946 5.0635L1.76221 4.95055H1.95559L2.01529 4.76526Z" fill="#FFF5F5"/>
</g>
<mask id="mask28_1_588" style="mask-type:luminance" maskUnits="userSpaceOnUse" x="0" y="0" width="16" height="11">
<path d="M0.233887 0.970093H15.766V10.0299H0.233887V0.970093Z" fill="white"/>
</mask>
<g mask="url(#mask28_1_588)">
<path d="M2.58281 1.93677L2.64246 2.12158H2.8377L2.67954 2.23593L2.74011 2.41982L2.58281 2.3064L2.42646 2.41982L2.48703 2.23593L2.32886 2.12158H2.52317L2.58281 1.93677Z" fill="#FFF5F5"/>
</g>
<mask id="mask29_1_588" style="mask-type:luminance" maskUnits="userSpaceOnUse" x="0" y="0" width="16" height="11">
<path d="M0.233887 0.970093H15.766V10.0299H0.233887V0.970093Z" fill="white"/>
</mask>
<g mask="url(#mask29_1_588)">
<path d="M2.58281 2.75146L2.64246 2.9354H2.8377L2.67954 3.04975L2.74011 3.23364L2.58281 3.12069L2.42646 3.23364L2.48703 3.04975L2.32886 2.9354H2.52317L2.58281 2.75146Z" fill="#FFF5F5"/>
</g>
<mask id="mask30_1_588" style="mask-type:luminance" maskUnits="userSpaceOnUse" x="0" y="0" width="16" height="11">
<path d="M0.233887 0.970093H15.766V10.0299H0.233887V0.970093Z" fill="white"/>
</mask>
<g mask="url(#mask30_1_588)">
<path d="M2.58281 3.5658L2.64246 3.75016H2.8377L2.67954 3.86403L2.74011 4.04844L2.58281 3.93457L2.42646 4.04844L2.48703 3.86403L2.32886 3.75016H2.52317L2.58281 3.5658Z" fill="#FFF5F5"/>
</g>
<mask id="mask31_1_588" style="mask-type:luminance" maskUnits="userSpaceOnUse" x="0" y="0" width="16" height="11">
<path d="M0.233887 0.970093H15.766V10.0299H0.233887V0.970093Z" fill="white"/>
</mask>
<g mask="url(#mask31_1_588)">
<path d="M2.58281 4.38062L2.64246 4.56455H2.8377L2.67954 4.67845L2.74011 4.86238L2.58281 4.74804L2.42646 4.86238L2.48703 4.67845L2.32886 4.56455H2.52317L2.58281 4.38062Z" fill="#FFF5F5"/>
</g>
<mask id="mask32_1_588" style="mask-type:luminance" maskUnits="userSpaceOnUse" x="0" y="0" width="16" height="11">
<path d="M0.233887 0.970093H15.766V10.0299H0.233887V0.970093Z" fill="white"/>
</mask>
<g mask="url(#mask32_1_588)">
<path d="M3.15762 1.50781L3.21819 1.69265H3.4107L3.25343 1.80652L3.3158 1.99093L3.15762 1.87706L3.00039 1.99093L3.06004 1.80652L2.90454 1.69265H3.09797L3.15762 1.50781Z" fill="#FFF5F5"/>
</g>
<mask id="mask33_1_588" style="mask-type:luminance" maskUnits="userSpaceOnUse" x="0" y="0" width="16" height="11">
<path d="M0.233887 0.970093H15.766V10.0299H0.233887V0.970093Z" fill="white"/>
</mask>
<g mask="url(#mask33_1_588)">
<path d="M3.15762 2.32263L3.21819 2.50655H3.4107L3.25343 2.61997L3.3158 2.80523L3.15762 2.69096L3.00039 2.80523L3.06004 2.61997L2.90454 2.50655H3.09797L3.15762 2.32263Z" fill="#FFF5F5"/>
</g>
<mask id="mask34_1_588" style="mask-type:luminance" maskUnits="userSpaceOnUse" x="0" y="0" width="16" height="11">
<path d="M0.233887 0.970093H15.766V10.0299H0.233887V0.970093Z" fill="white"/>
</mask>
<g mask="url(#mask34_1_588)">
<path d="M3.15762 3.13696L3.21819 3.3209H3.4107L3.25343 3.4348L3.3158 3.61961L3.15762 3.50527L3.00039 3.61961L3.06004 3.4348L2.90454 3.3209H3.09797L3.15762 3.13696Z" fill="#FFF5F5"/>
</g>
<mask id="mask35_1_588" style="mask-type:luminance" maskUnits="userSpaceOnUse" x="0" y="0" width="16" height="11">
<path d="M0.233887 0.970093H15.766V10.0299H0.233887V0.970093Z" fill="white"/>
</mask>
<g mask="url(#mask35_1_588)">
<path d="M3.15762 3.95093L3.21819 4.13574H3.4107L3.25343 4.24962L3.3158 4.43358L3.15762 4.32015L3.00039 4.43358L3.06004 4.24962L2.90454 4.13574H3.09797L3.15762 3.95093Z" fill="#FFF5F5"/>
</g>
<mask id="mask36_1_588" style="mask-type:luminance" maskUnits="userSpaceOnUse" x="0" y="0" width="16" height="11">
<path d="M0.233887 0.970093H15.766V10.0299H0.233887V0.970093Z" fill="white"/>
</mask>
<g mask="url(#mask36_1_588)">
<path d="M3.15762 4.76526L3.21819 4.95055H3.4107L3.25343 5.0635L3.3158 5.24791L3.15762 5.13403L3.00039 5.24791L3.06004 5.0635L2.90454 4.95055H3.09797L3.15762 4.76526Z" fill="#FFF5F5"/>
</g>
<mask id="mask37_1_588" style="mask-type:luminance" maskUnits="userSpaceOnUse" x="0" y="0" width="16" height="11">
<path d="M0.233887 0.970093H15.766V10.0299H0.233887V0.970093Z" fill="white"/>
</mask>
<g mask="url(#mask37_1_588)">
<path d="M3.72546 1.93677L3.78511 2.12158H3.97847L3.82212 2.23593L3.88089 2.41982L3.72546 2.3064L3.56909 2.41982L3.62781 2.23593L3.47144 2.12158H3.66487L3.72546 1.93677Z" fill="#FFF5F5"/>
</g>
<mask id="mask38_1_588" style="mask-type:luminance" maskUnits="userSpaceOnUse" x="0" y="0" width="16" height="11">
<path d="M0.233887 0.970093H15.766V10.0299H0.233887V0.970093Z" fill="white"/>
</mask>
<g mask="url(#mask38_1_588)">
<path d="M3.72546 2.75146L3.78511 2.9354H3.97847L3.82212 3.04975L3.88089 3.23364L3.72546 3.12069L3.56909 3.23364L3.62781 3.04975L3.47144 2.9354H3.66487L3.72546 2.75146Z" fill="#FFF5F5"/>
</g>
<mask id="mask39_1_588" style="mask-type:luminance" maskUnits="userSpaceOnUse" x="0" y="0" width="16" height="11">
<path d="M0.233887 0.970093H15.766V10.0299H0.233887V0.970093Z" fill="white"/>
</mask>
<g mask="url(#mask39_1_588)">
<path d="M3.72546 3.5658L3.78511 3.75016H3.97847L3.82212 3.86403L3.88089 4.04844L3.72546 3.93457L3.56909 4.04844L3.62781 3.86403L3.47144 3.75016H3.66487L3.72546 3.5658Z" fill="#FFF5F5"/>
</g>
<mask id="mask40_1_588" style="mask-type:luminance" maskUnits="userSpaceOnUse" x="0" y="0" width="16" height="11">
<path d="M0.233887 0.970093H15.766V10.0299H0.233887V0.970093Z" fill="white"/>
</mask>
<g mask="url(#mask40_1_588)">
<path d="M3.72546 4.38062L3.78511 4.56455H3.97847L3.82212 4.67845L3.88089 4.86238L3.72546 4.74804L3.56909 4.86238L3.62781 4.67845L3.47144 4.56455H3.66487L3.72546 4.38062Z" fill="#FFF5F5"/>
</g>
<mask id="mask41_1_588" style="mask-type:luminance" maskUnits="userSpaceOnUse" x="0" y="0" width="16" height="11">
<path d="M0.233887 0.970093H15.766V10.0299H0.233887V0.970093Z" fill="white"/>
</mask>
<g mask="url(#mask41_1_588)">
<path d="M4.29845 1.50781L4.35902 1.69265H4.55245L4.3961 1.80652L4.45662 1.99093L4.29845 1.87706L4.14302 1.99093L4.20179 1.80652L4.04541 1.69265H4.2388L4.29845 1.50781Z" fill="#FFF5F5"/>
</g>
<mask id="mask42_1_588" style="mask-type:luminance" maskUnits="userSpaceOnUse" x="0" y="0" width="16" height="11">
<path d="M0.233887 0.970093H15.766V10.0299H0.233887V0.970093Z" fill="white"/>
</mask>
<g mask="url(#mask42_1_588)">
<path d="M4.29845 2.32263L4.35902 2.50655H4.55245L4.3961 2.61997L4.45662 2.80523L4.29845 2.69096L4.14302 2.80523L4.20179 2.61997L4.04541 2.50655H4.2388L4.29845 2.32263Z" fill="#FFF5F5"/>
</g>
<mask id="mask43_1_588" style="mask-type:luminance" maskUnits="userSpaceOnUse" x="0" y="0" width="16" height="11">
<path d="M0.233887 0.970093H15.766V10.0299H0.233887V0.970093Z" fill="white"/>
</mask>
<g mask="url(#mask43_1_588)">
<path d="M4.29845 3.13696L4.35902 3.3209H4.55245L4.3961 3.4348L4.45662 3.61961L4.29845 3.50527L4.14302 3.61961L4.20179 3.4348L4.04541 3.3209H4.2388L4.29845 3.13696Z" fill="#FFF5F5"/>
</g>
<mask id="mask44_1_588" style="mask-type:luminance" maskUnits="userSpaceOnUse" x="0" y="0" width="16" height="11">
<path d="M0.233887 0.970093H15.766V10.0299H0.233887V0.970093Z" fill="white"/>
</mask>
<g mask="url(#mask44_1_588)">
<path d="M4.29845 3.95093L4.35902 4.13574H4.55245L4.3961 4.24962L4.45662 4.43358L4.29845 4.32015L4.14302 4.43358L4.20179 4.24962L4.04541 4.13574H4.2388L4.29845 3.95093Z" fill="#FFF5F5"/>
</g>
<mask id="mask45_1_588" style="mask-type:luminance" maskUnits="userSpaceOnUse" x="0" y="0" width="16" height="11">
<path d="M0.233887 0.970093H15.766V10.0299H0.233887V0.970093Z" fill="white"/>
</mask>
<g mask="url(#mask45_1_588)">
<path d="M4.29845 4.76526L4.35902 4.95055H4.55245L4.3961 5.0635L4.45662 5.24791L4.29845 5.13403L4.14302 5.24791L4.20179 5.0635L4.04541 4.95055H4.2388L4.29845 4.76526Z" fill="#FFF5F5"/>
</g>
<mask id="mask46_1_588" style="mask-type:luminance" maskUnits="userSpaceOnUse" x="0" y="0" width="16" height="11">
<path d="M0.233887 0.970093H15.766V10.0299H0.233887V0.970093Z" fill="white"/>
</mask>
<g mask="url(#mask46_1_588)">
<path d="M4.86587 1.93677L4.92552 2.12158H5.12075L4.96346 2.23593L5.02315 2.41982L4.86587 2.3064L4.7095 2.41982L4.77007 2.23593L4.61279 2.12158H4.80715L4.86587 1.93677Z" fill="#FFF5F5"/>
</g>
<mask id="mask47_1_588" style="mask-type:luminance" maskUnits="userSpaceOnUse" x="0" y="0" width="16" height="11">
<path d="M0.233887 0.970093H15.766V10.0299H0.233887V0.970093Z" fill="white"/>
</mask>
<g mask="url(#mask47_1_588)">
<path d="M4.86587 2.75146L4.92552 2.9354H5.12075L4.96346 3.04975L5.02315 3.23364L4.86587 3.12069L4.7095 3.23364L4.77007 3.04975L4.61279 2.9354H4.80715L4.86587 2.75146Z" fill="#FFF5F5"/>
</g>
<mask id="mask48_1_588" style="mask-type:luminance" maskUnits="userSpaceOnUse" x="0" y="0" width="16" height="11">
<path d="M0.233887 0.970093H15.766V10.0299H0.233887V0.970093Z" fill="white"/>
</mask>
<g mask="url(#mask48_1_588)">
<path d="M4.86587 3.5658L4.92552 3.75016H5.12075L4.96346 3.86403L5.02315 4.04844L4.86587 3.93457L4.7095 4.04844L4.77007 3.86403L4.61279 3.75016H4.80715L4.86587 3.5658Z" fill="#FFF5F5"/>
</g>
<mask id="mask49_1_588" style="mask-type:luminance" maskUnits="userSpaceOnUse" x="0" y="0" width="16" height="11">
<path d="M0.233887 0.970093H15.766V10.0299H0.233887V0.970093Z" fill="white"/>
</mask>
<g mask="url(#mask49_1_588)">
<path d="M4.86587 4.38062L4.92552 4.56455H5.12075L4.96346 4.67845L5.02315 4.86238L4.86587 4.74804L4.7095 4.86238L4.77007 4.67845L4.61279 4.56455H4.80715L4.86587 4.38062Z" fill="#FFF5F5"/>
</g>
<mask id="mask50_1_588" style="mask-type:luminance" maskUnits="userSpaceOnUse" x="0" y="0" width="16" height="11">
<path d="M0.233887 0.970093H15.766V10.0299H0.233887V0.970093Z" fill="white"/>
</mask>
<g mask="url(#mask50_1_588)">
<path d="M5.44082 1.50781L5.50139 1.69265H5.69478L5.53841 1.80652L5.59718 1.99093L5.44082 1.87706L5.28537 1.99093L5.3441 1.80652L5.18774 1.69265H5.38115L5.44082 1.50781Z" fill="#FFF5F5"/>
</g>
<mask id="mask51_1_588" style="mask-type:luminance" maskUnits="userSpaceOnUse" x="0" y="0" width="16" height="11">
<path d="M0.233887 0.970093H15.766V10.0299H0.233887V0.970093Z" fill="white"/>
</mask>
<g mask="url(#mask51_1_588)">
<path d="M5.44082 2.32263L5.50139 2.50655H5.69478L5.53841 2.61997L5.59718 2.80523L5.44082 2.69096L5.28537 2.80523L5.3441 2.61997L5.18774 2.50655H5.38115L5.44082 2.32263Z" fill="#FFF5F5"/>
</g>
<mask id="mask52_1_588" style="mask-type:luminance" maskUnits="userSpaceOnUse" x="0" y="0" width="16" height="11">
<path d="M0.233887 0.970093H15.766V10.0299H0.233887V0.970093Z" fill="white"/>
</mask>
<g mask="url(#mask52_1_588)">
<path d="M5.44082 3.13696L5.50139 3.3209H5.69478L5.53841 3.4348L5.59718 3.61961L5.44082 3.50527L5.28537 3.61961L5.3441 3.4348L5.18774 3.3209H5.38115L5.44082 3.13696Z" fill="#FFF5F5"/>
</g>
<mask id="mask53_1_588" style="mask-type:luminance" maskUnits="userSpaceOnUse" x="0" y="0" width="16" height="11">
<path d="M0.233887 0.970093H15.766V10.0299H0.233887V0.970093Z" fill="white"/>
</mask>
<g mask="url(#mask53_1_588)">
<path d="M5.44082 3.95093L5.50139 4.13574H5.69478L5.53841 4.24962L5.59718 4.43358L5.44082 4.32015L5.28537 4.43358L5.3441 4.24962L5.18774 4.13574H5.38115L5.44082 3.95093Z" fill="#FFF5F5"/>
</g>
<mask id="mask54_1_588" style="mask-type:luminance" maskUnits="userSpaceOnUse" x="0" y="0" width="16" height="11">
<path d="M0.233887 0.970093H15.766V10.0299H0.233887V0.970093Z" fill="white"/>
</mask>
<g mask="url(#mask54_1_588)">
<path d="M5.44082 4.76526L5.50139 4.95055H5.69478L5.53841 5.0635L5.59718 5.24791L5.44082 5.13403L5.28537 5.24791L5.3441 5.0635L5.18774 4.95055H5.38115L5.44082 4.76526Z" fill="#FFF5F5"/>
</g>
<mask id="mask55_1_588" style="mask-type:luminance" maskUnits="userSpaceOnUse" x="0" y="0" width="16" height="11">
<path d="M0.233887 0.970093H15.766V10.0299H0.233887V0.970093Z" fill="white"/>
</mask>
<g mask="url(#mask55_1_588)">
<path d="M6.00845 1.93677L6.06718 2.12158H6.26149L6.10603 2.23593L6.16388 2.41982L6.00845 2.3064L5.85028 2.41982L5.9108 2.23593L5.75537 2.12158H5.94788L6.00845 1.93677Z" fill="#FFF5F5"/>
</g>
<mask id="mask56_1_588" style="mask-type:luminance" maskUnits="userSpaceOnUse" x="0" y="0" width="16" height="11">
<path d="M0.233887 0.970093H15.766V10.0299H0.233887V0.970093Z" fill="white"/>
</mask>
<g mask="url(#mask56_1_588)">
<path d="M6.00845 2.75146L6.06718 2.9354H6.26149L6.10603 3.04975L6.16388 3.23364L6.00845 3.12069L5.85028 3.23364L5.9108 3.04975L5.75537 2.9354H5.94788L6.00845 2.75146Z" fill="#FFF5F5"/>
</g>
<mask id="mask57_1_588" style="mask-type:luminance" maskUnits="userSpaceOnUse" x="0" y="0" width="16" height="11">
<path d="M0.233887 0.970093H15.766V10.0299H0.233887V0.970093Z" fill="white"/>
</mask>
<g mask="url(#mask57_1_588)">
<path d="M6.00845 3.5658L6.06718 3.75016H6.26149L6.10603 3.86403L6.16388 4.04844L6.00845 3.93457L5.85028 4.04844L5.9108 3.86403L5.75537 3.75016H5.94788L6.00845 3.5658Z" fill="#FFF5F5"/>
</g>
<mask id="mask58_1_588" style="mask-type:luminance" maskUnits="userSpaceOnUse" x="0" y="0" width="16" height="11">
<path d="M0.233887 0.970093H15.766V10.0299H0.233887V0.970093Z" fill="white"/>
</mask>
<g mask="url(#mask58_1_588)">
<path d="M6.00845 4.38062L6.06718 4.56455H6.26149L6.10603 4.67845L6.16388 4.86238L6.00845 4.74804L5.85028 4.86238L5.9108 4.67845L5.75537 4.56455H5.94788L6.00845 4.38062Z" fill="#FFF5F5"/>
</g>
<mask id="mask59_1_588" style="mask-type:luminance" maskUnits="userSpaceOnUse" x="0" y="0" width="16" height="11">
<path d="M0.233887 0.970093H15.766V10.0299H0.233887V0.970093Z" fill="white"/>
</mask>
<g mask="url(#mask59_1_588)">
<path d="M6.5814 1.50781L6.6429 1.69265H6.83541L6.67903 1.80652L6.73956 1.99093L6.5814 1.87706L6.42595 1.99093L6.48472 1.80652L6.32837 1.69265H6.52176L6.5814 1.50781Z" fill="#FFF5F5"/>
</g>
<mask id="mask60_1_588" style="mask-type:luminance" maskUnits="userSpaceOnUse" x="0" y="0" width="16" height="11">
<path d="M0.233887 0.970093H15.766V10.0299H0.233887V0.970093Z" fill="white"/>
</mask>
<g mask="url(#mask60_1_588)">
<path d="M6.5814 2.32263L6.6429 2.50655H6.83541L6.67903 2.61997L6.73956 2.80523L6.5814 2.69096L6.42595 2.80523L6.48472 2.61997L6.32837 2.50655H6.52176L6.5814 2.32263Z" fill="#FFF5F5"/>
</g>
<mask id="mask61_1_588" style="mask-type:luminance" maskUnits="userSpaceOnUse" x="0" y="0" width="16" height="11">
<path d="M0.233887 0.970093H15.766V10.0299H0.233887V0.970093Z" fill="white"/>
</mask>
<g mask="url(#mask61_1_588)">
<path d="M6.5814 3.13696L6.6429 3.3209H6.83541L6.67903 3.4348L6.73956 3.61961L6.5814 3.50527L6.42595 3.61961L6.48472 3.4348L6.32837 3.3209H6.52176L6.5814 3.13696Z" fill="#FFF5F5"/>
</g>
<mask id="mask62_1_588" style="mask-type:luminance" maskUnits="userSpaceOnUse" x="0" y="0" width="16" height="11">
<path d="M0.233887 0.970093H15.766V10.0299H0.233887V0.970093Z" fill="white"/>
</mask>
<g mask="url(#mask62_1_588)">
<path d="M6.5814 3.95093L6.6429 4.13574H6.83541L6.67903 4.24962L6.73956 4.43358L6.5814 4.32015L6.42595 4.43358L6.48472 4.24962L6.32837 4.13574H6.52176L6.5814 3.95093Z" fill="#FFF5F5"/>
</g>
<mask id="mask63_1_588" style="mask-type:luminance" maskUnits="userSpaceOnUse" x="0" y="0" width="16" height="11">
<path d="M0.233887 0.970093H15.766V10.0299H0.233887V0.970093Z" fill="white"/>
</mask>
<g mask="url(#mask63_1_588)">
<path d="M6.5814 4.76526L6.6429 4.95055H6.83541L6.67903 5.0635L6.73956 5.24791L6.5814 5.13403L6.42595 5.24791L6.48472 5.0635L6.32837 4.95055H6.52176L6.5814 4.76526Z" fill="#FFF5F5"/>
</g>
</svg>
